<mxfile host="65bd71144e">
    <diagram id="tvNLZa-CBfe17h-ha0Ih" name="Page-2">
        <mxGraphModel dx="810" dy="1525" grid="1" gridSize="10" guides="1" tooltips="1" connect="1" arrows="1" fold="1" page="1" pageScale="1" pageWidth="827" pageHeight="1169" math="0" shadow="0">
            <root>
                <mxCell id="0"/>
                <mxCell id="1" parent="0"/>
                <mxCell id="mXA5R7LTz2ie4Cur8OkS-5" value="Aluno" style="swimlane;fontStyle=0;childLayout=stackLayout;horizontal=1;startSize=26;fillColor=none;horizontalStack=0;resizeParent=1;resizeParentMax=0;resizeLast=0;collapsible=1;marginBottom=0;" parent="1" vertex="1">
                    <mxGeometry x="90" y="60" width="190" height="364" as="geometry"/>
                </mxCell>
                <mxCell id="mXA5R7LTz2ie4Cur8OkS-6" value="_id: ObjectId" style="text;strokeColor=none;fillColor=none;align=left;verticalAlign=top;spacingLeft=4;spacingRight=4;overflow=hidden;rotatable=0;points=[[0,0.5],[1,0.5]];portConstraint=eastwest;" parent="mXA5R7LTz2ie4Cur8OkS-5" vertex="1">
                    <mxGeometry y="26" width="190" height="26" as="geometry"/>
                </mxCell>
                <mxCell id="mXA5R7LTz2ie4Cur8OkS-7" value="nome: String" style="text;strokeColor=none;fillColor=none;align=left;verticalAlign=top;spacingLeft=4;spacingRight=4;overflow=hidden;rotatable=0;points=[[0,0.5],[1,0.5]];portConstraint=eastwest;" parent="mXA5R7LTz2ie4Cur8OkS-5" vertex="1">
                    <mxGeometry y="52" width="190" height="26" as="geometry"/>
                </mxCell>
                <mxCell id="mXA5R7LTz2ie4Cur8OkS-8" value="cpf: String" style="text;strokeColor=none;fillColor=none;align=left;verticalAlign=top;spacingLeft=4;spacingRight=4;overflow=hidden;rotatable=0;points=[[0,0.5],[1,0.5]];portConstraint=eastwest;" parent="mXA5R7LTz2ie4Cur8OkS-5" vertex="1">
                    <mxGeometry y="78" width="190" height="26" as="geometry"/>
                </mxCell>
                <mxCell id="mXA5R7LTz2ie4Cur8OkS-30" value="dataNascimento: DateTime" style="text;strokeColor=none;fillColor=none;align=left;verticalAlign=top;spacingLeft=4;spacingRight=4;overflow=hidden;rotatable=0;points=[[0,0.5],[1,0.5]];portConstraint=eastwest;" parent="mXA5R7LTz2ie4Cur8OkS-5" vertex="1">
                    <mxGeometry y="104" width="190" height="26" as="geometry"/>
                </mxCell>
                <mxCell id="mXA5R7LTz2ie4Cur8OkS-21" value="logradouro: String" style="text;strokeColor=none;fillColor=none;align=left;verticalAlign=top;spacingLeft=4;spacingRight=4;overflow=hidden;rotatable=0;points=[[0,0.5],[1,0.5]];portConstraint=eastwest;" parent="mXA5R7LTz2ie4Cur8OkS-5" vertex="1">
                    <mxGeometry y="130" width="190" height="26" as="geometry"/>
                </mxCell>
                <mxCell id="mXA5R7LTz2ie4Cur8OkS-22" value="numImovel: String" style="text;strokeColor=none;fillColor=none;align=left;verticalAlign=top;spacingLeft=4;spacingRight=4;overflow=hidden;rotatable=0;points=[[0,0.5],[1,0.5]];portConstraint=eastwest;" parent="mXA5R7LTz2ie4Cur8OkS-5" vertex="1">
                    <mxGeometry y="156" width="190" height="26" as="geometry"/>
                </mxCell>
                <mxCell id="mXA5R7LTz2ie4Cur8OkS-23" value="Complemento: String?" style="text;strokeColor=none;fillColor=none;align=left;verticalAlign=top;spacingLeft=4;spacingRight=4;overflow=hidden;rotatable=0;points=[[0,0.5],[1,0.5]];portConstraint=eastwest;" parent="mXA5R7LTz2ie4Cur8OkS-5" vertex="1">
                    <mxGeometry y="182" width="190" height="26" as="geometry"/>
                </mxCell>
                <mxCell id="mXA5R7LTz2ie4Cur8OkS-25" value="Bairro: String" style="text;strokeColor=none;fillColor=none;align=left;verticalAlign=top;spacingLeft=4;spacingRight=4;overflow=hidden;rotatable=0;points=[[0,0.5],[1,0.5]];portConstraint=eastwest;" parent="mXA5R7LTz2ie4Cur8OkS-5" vertex="1">
                    <mxGeometry y="208" width="190" height="26" as="geometry"/>
                </mxCell>
                <mxCell id="mXA5R7LTz2ie4Cur8OkS-26" value="município: String" style="text;strokeColor=none;fillColor=none;align=left;verticalAlign=top;spacingLeft=4;spacingRight=4;overflow=hidden;rotatable=0;points=[[0,0.5],[1,0.5]];portConstraint=eastwest;" parent="mXA5R7LTz2ie4Cur8OkS-5" vertex="1">
                    <mxGeometry y="234" width="190" height="26" as="geometry"/>
                </mxCell>
                <mxCell id="mXA5R7LTz2ie4Cur8OkS-27" value="uf: String" style="text;strokeColor=none;fillColor=none;align=left;verticalAlign=top;spacingLeft=4;spacingRight=4;overflow=hidden;rotatable=0;points=[[0,0.5],[1,0.5]];portConstraint=eastwest;" parent="mXA5R7LTz2ie4Cur8OkS-5" vertex="1">
                    <mxGeometry y="260" width="190" height="26" as="geometry"/>
                </mxCell>
                <mxCell id="mXA5R7LTz2ie4Cur8OkS-28" value="email: String" style="text;strokeColor=none;fillColor=none;align=left;verticalAlign=top;spacingLeft=4;spacingRight=4;overflow=hidden;rotatable=0;points=[[0,0.5],[1,0.5]];portConstraint=eastwest;" parent="mXA5R7LTz2ie4Cur8OkS-5" vertex="1">
                    <mxGeometry y="286" width="190" height="26" as="geometry"/>
                </mxCell>
                <mxCell id="mXA5R7LTz2ie4Cur8OkS-29" value="telefone: String" style="text;strokeColor=none;fillColor=none;align=left;verticalAlign=top;spacingLeft=4;spacingRight=4;overflow=hidden;rotatable=0;points=[[0,0.5],[1,0.5]];portConstraint=eastwest;" parent="mXA5R7LTz2ie4Cur8OkS-5" vertex="1">
                    <mxGeometry y="312" width="190" height="26" as="geometry"/>
                </mxCell>
                <mxCell id="tHLVrhVuMcMVLVZoWZUN-9" value="turmas:Turma[]" style="text;strokeColor=none;fillColor=none;align=left;verticalAlign=top;spacingLeft=4;spacingRight=4;overflow=hidden;rotatable=0;points=[[0,0.5],[1,0.5]];portConstraint=eastwest;" parent="mXA5R7LTz2ie4Cur8OkS-5" vertex="1">
                    <mxGeometry y="338" width="190" height="26" as="geometry"/>
                </mxCell>
                <mxCell id="mXA5R7LTz2ie4Cur8OkS-9" value="Curso" style="swimlane;fontStyle=0;childLayout=stackLayout;horizontal=1;startSize=26;fillColor=none;horizontalStack=0;resizeParent=1;resizeParentMax=0;resizeLast=0;collapsible=1;marginBottom=0;" parent="1" vertex="1">
                    <mxGeometry x="620" y="50" width="140" height="182" as="geometry"/>
                </mxCell>
                <mxCell id="mXA5R7LTz2ie4Cur8OkS-10" value="_id: ObjectId" style="text;strokeColor=none;fillColor=none;align=left;verticalAlign=top;spacingLeft=4;spacingRight=4;overflow=hidden;rotatable=0;points=[[0,0.5],[1,0.5]];portConstraint=eastwest;" parent="mXA5R7LTz2ie4Cur8OkS-9" vertex="1">
                    <mxGeometry y="26" width="140" height="26" as="geometry"/>
                </mxCell>
                <mxCell id="mXA5R7LTz2ie4Cur8OkS-11" value="nome: String" style="text;strokeColor=none;fillColor=none;align=left;verticalAlign=top;spacingLeft=4;spacingRight=4;overflow=hidden;rotatable=0;points=[[0,0.5],[1,0.5]];portConstraint=eastwest;" parent="mXA5R7LTz2ie4Cur8OkS-9" vertex="1">
                    <mxGeometry y="52" width="140" height="26" as="geometry"/>
                </mxCell>
                <mxCell id="mXA5R7LTz2ie4Cur8OkS-12" value="nível: String" style="text;strokeColor=none;fillColor=none;align=left;verticalAlign=top;spacingLeft=4;spacingRight=4;overflow=hidden;rotatable=0;points=[[0,0.5],[1,0.5]];portConstraint=eastwest;" parent="mXA5R7LTz2ie4Cur8OkS-9" vertex="1">
                    <mxGeometry y="78" width="140" height="26" as="geometry"/>
                </mxCell>
                <mxCell id="mXA5R7LTz2ie4Cur8OkS-31" value="area: String" style="text;strokeColor=none;fillColor=none;align=left;verticalAlign=top;spacingLeft=4;spacingRight=4;overflow=hidden;rotatable=0;points=[[0,0.5],[1,0.5]];portConstraint=eastwest;" parent="mXA5R7LTz2ie4Cur8OkS-9" vertex="1">
                    <mxGeometry y="104" width="140" height="26" as="geometry"/>
                </mxCell>
                <mxCell id="4" value="valorTotal: Float" style="text;strokeColor=none;fillColor=none;align=left;verticalAlign=top;spacingLeft=4;spacingRight=4;overflow=hidden;rotatable=0;points=[[0,0.5],[1,0.5]];portConstraint=eastwest;" parent="mXA5R7LTz2ie4Cur8OkS-9" vertex="1">
                    <mxGeometry y="130" width="140" height="26" as="geometry"/>
                </mxCell>
                <mxCell id="3" value="turmas: Turma[]" style="text;strokeColor=none;fillColor=none;align=left;verticalAlign=top;spacingLeft=4;spacingRight=4;overflow=hidden;rotatable=0;points=[[0,0.5],[1,0.5]];portConstraint=eastwest;" parent="mXA5R7LTz2ie4Cur8OkS-9" vertex="1">
                    <mxGeometry y="156" width="140" height="26" as="geometry"/>
                </mxCell>
                <mxCell id="mXA5R7LTz2ie4Cur8OkS-13" value="Professor" style="swimlane;fontStyle=0;childLayout=stackLayout;horizontal=1;startSize=26;fillColor=none;horizontalStack=0;resizeParent=1;resizeParentMax=0;resizeLast=0;collapsible=1;marginBottom=0;" parent="1" vertex="1">
                    <mxGeometry x="610" y="300" width="180" height="234" as="geometry"/>
                </mxCell>
                <mxCell id="mXA5R7LTz2ie4Cur8OkS-14" value="_id: ObjectId" style="text;strokeColor=none;fillColor=none;align=left;verticalAlign=top;spacingLeft=4;spacingRight=4;overflow=hidden;rotatable=0;points=[[0,0.5],[1,0.5]];portConstraint=eastwest;" parent="mXA5R7LTz2ie4Cur8OkS-13" vertex="1">
                    <mxGeometry y="26" width="180" height="26" as="geometry"/>
                </mxCell>
                <mxCell id="mXA5R7LTz2ie4Cur8OkS-15" value="nome: String" style="text;strokeColor=none;fillColor=none;align=left;verticalAlign=top;spacingLeft=4;spacingRight=4;overflow=hidden;rotatable=0;points=[[0,0.5],[1,0.5]];portConstraint=eastwest;" parent="mXA5R7LTz2ie4Cur8OkS-13" vertex="1">
                    <mxGeometry y="52" width="180" height="26" as="geometry"/>
                </mxCell>
                <mxCell id="mXA5R7LTz2ie4Cur8OkS-16" value="formacao: String" style="text;strokeColor=none;fillColor=none;align=left;verticalAlign=top;spacingLeft=4;spacingRight=4;overflow=hidden;rotatable=0;points=[[0,0.5],[1,0.5]];portConstraint=eastwest;" parent="mXA5R7LTz2ie4Cur8OkS-13" vertex="1">
                    <mxGeometry y="78" width="180" height="26" as="geometry"/>
                </mxCell>
                <mxCell id="mXA5R7LTz2ie4Cur8OkS-32" value="cpf: String" style="text;strokeColor=none;fillColor=none;align=left;verticalAlign=top;spacingLeft=4;spacingRight=4;overflow=hidden;rotatable=0;points=[[0,0.5],[1,0.5]];portConstraint=eastwest;" parent="mXA5R7LTz2ie4Cur8OkS-13" vertex="1">
                    <mxGeometry y="104" width="180" height="26" as="geometry"/>
                </mxCell>
                <mxCell id="mXA5R7LTz2ie4Cur8OkS-33" value="dataNascimento: DateTime" style="text;strokeColor=none;fillColor=none;align=left;verticalAlign=top;spacingLeft=4;spacingRight=4;overflow=hidden;rotatable=0;points=[[0,0.5],[1,0.5]];portConstraint=eastwest;" parent="mXA5R7LTz2ie4Cur8OkS-13" vertex="1">
                    <mxGeometry y="130" width="180" height="26" as="geometry"/>
                </mxCell>
                <mxCell id="mXA5R7LTz2ie4Cur8OkS-34" value="email: String" style="text;strokeColor=none;fillColor=none;align=left;verticalAlign=top;spacingLeft=4;spacingRight=4;overflow=hidden;rotatable=0;points=[[0,0.5],[1,0.5]];portConstraint=eastwest;" parent="mXA5R7LTz2ie4Cur8OkS-13" vertex="1">
                    <mxGeometry y="156" width="180" height="26" as="geometry"/>
                </mxCell>
                <mxCell id="mXA5R7LTz2ie4Cur8OkS-35" value="Telefone: String" style="text;strokeColor=none;fillColor=none;align=left;verticalAlign=top;spacingLeft=4;spacingRight=4;overflow=hidden;rotatable=0;points=[[0,0.5],[1,0.5]];portConstraint=eastwest;" parent="mXA5R7LTz2ie4Cur8OkS-13" vertex="1">
                    <mxGeometry y="182" width="180" height="26" as="geometry"/>
                </mxCell>
                <mxCell id="2" value="turmas Turma[]" style="text;strokeColor=none;fillColor=none;align=left;verticalAlign=top;spacingLeft=4;spacingRight=4;overflow=hidden;rotatable=0;points=[[0,0.5],[1,0.5]];portConstraint=eastwest;" parent="mXA5R7LTz2ie4Cur8OkS-13" vertex="1">
                    <mxGeometry y="208" width="180" height="26" as="geometry"/>
                </mxCell>
                <mxCell id="mXA5R7LTz2ie4Cur8OkS-17" value="Turma" style="swimlane;fontStyle=0;childLayout=stackLayout;horizontal=1;startSize=26;fillColor=none;horizontalStack=0;resizeParent=1;resizeParentMax=0;resizeLast=0;collapsible=1;marginBottom=0;" parent="1" vertex="1">
                    <mxGeometry x="380" y="100" width="140" height="208" as="geometry"/>
                </mxCell>
                <mxCell id="mXA5R7LTz2ie4Cur8OkS-18" value="_id: ObjectId" style="text;strokeColor=none;fillColor=none;align=left;verticalAlign=top;spacingLeft=4;spacingRight=4;overflow=hidden;rotatable=0;points=[[0,0.5],[1,0.5]];portConstraint=eastwest;" parent="mXA5R7LTz2ie4Cur8OkS-17" vertex="1">
                    <mxGeometry y="26" width="140" height="26" as="geometry"/>
                </mxCell>
                <mxCell id="tHLVrhVuMcMVLVZoWZUN-12" value="cursoId: ObjectId" style="text;strokeColor=none;fillColor=none;align=left;verticalAlign=top;spacingLeft=4;spacingRight=4;overflow=hidden;rotatable=0;points=[[0,0.5],[1,0.5]];portConstraint=eastwest;" parent="mXA5R7LTz2ie4Cur8OkS-17" vertex="1">
                    <mxGeometry y="52" width="140" height="26" as="geometry"/>
                </mxCell>
                <mxCell id="tHLVrhVuMcMVLVZoWZUN-13" value="professor_id: ObjectId?" style="text;strokeColor=none;fillColor=none;align=left;verticalAlign=top;spacingLeft=4;spacingRight=4;overflow=hidden;rotatable=0;points=[[0,0.5],[1,0.5]];portConstraint=eastwest;" parent="mXA5R7LTz2ie4Cur8OkS-17" vertex="1">
                    <mxGeometry y="78" width="140" height="26" as="geometry"/>
                </mxCell>
                <mxCell id="mXA5R7LTz2ie4Cur8OkS-19" value="diaSemana: String" style="text;strokeColor=none;fillColor=none;align=left;verticalAlign=top;spacingLeft=4;spacingRight=4;overflow=hidden;rotatable=0;points=[[0,0.5],[1,0.5]];portConstraint=eastwest;" parent="mXA5R7LTz2ie4Cur8OkS-17" vertex="1">
                    <mxGeometry y="104" width="140" height="26" as="geometry"/>
                </mxCell>
                <mxCell id="mXA5R7LTz2ie4Cur8OkS-20" value="horaInicial: Int" style="text;strokeColor=none;fillColor=none;align=left;verticalAlign=top;spacingLeft=4;spacingRight=4;overflow=hidden;rotatable=0;points=[[0,0.5],[1,0.5]];portConstraint=eastwest;" parent="mXA5R7LTz2ie4Cur8OkS-17" vertex="1">
                    <mxGeometry y="130" width="140" height="26" as="geometry"/>
                </mxCell>
                <mxCell id="mXA5R7LTz2ie4Cur8OkS-24" value="horaFinal: Int" style="text;strokeColor=none;fillColor=none;align=left;verticalAlign=top;spacingLeft=4;spacingRight=4;overflow=hidden;rotatable=0;points=[[0,0.5],[1,0.5]];portConstraint=eastwest;" parent="mXA5R7LTz2ie4Cur8OkS-17" vertex="1">
                    <mxGeometry y="156" width="140" height="26" as="geometry"/>
                </mxCell>
                <mxCell id="tHLVrhVuMcMVLVZoWZUN-11" value="alunos: Aluno[]" style="text;strokeColor=none;fillColor=none;align=left;verticalAlign=top;spacingLeft=4;spacingRight=4;overflow=hidden;rotatable=0;points=[[0,0.5],[1,0.5]];portConstraint=eastwest;" parent="mXA5R7LTz2ie4Cur8OkS-17" vertex="1">
                    <mxGeometry y="182" width="140" height="26" as="geometry"/>
                </mxCell>
                <mxCell id="mXA5R7LTz2ie4Cur8OkS-43" value="" style="endArrow=diamondThin;endFill=1;endSize=24;html=1;edgeStyle=orthogonalEdgeStyle;entryX=0.007;entryY=0.154;entryDx=0;entryDy=0;entryPerimeter=0;exitX=0.5;exitY=0;exitDx=0;exitDy=0;" parent="1" source="mXA5R7LTz2ie4Cur8OkS-17" target="mXA5R7LTz2ie4Cur8OkS-9" edge="1">
                    <mxGeometry width="160" relative="1" as="geometry">
                        <mxPoint x="450" as="sourcePoint"/>
                        <mxPoint x="638.9200000000001" y="59.12599999999998" as="targetPoint"/>
                        <Array as="points">
                            <mxPoint x="450" y="30"/>
                            <mxPoint x="621" y="30"/>
                        </Array>
                    </mxGeometry>
                </mxCell>
                <mxCell id="mXA5R7LTz2ie4Cur8OkS-44" value="n" style="edgeLabel;html=1;align=center;verticalAlign=middle;resizable=0;points=[];" parent="mXA5R7LTz2ie4Cur8OkS-43" vertex="1" connectable="0">
                    <mxGeometry x="0.1812" relative="1" as="geometry">
                        <mxPoint x="-30" y="-146" as="offset"/>
                    </mxGeometry>
                </mxCell>
                <mxCell id="mXA5R7LTz2ie4Cur8OkS-48" value="0..*&lt;br&gt;" style="edgeLabel;html=1;align=center;verticalAlign=middle;resizable=0;points=[];" parent="mXA5R7LTz2ie4Cur8OkS-43" vertex="1" connectable="0">
                    <mxGeometry x="-0.8292" y="-1" relative="1" as="geometry">
                        <mxPoint x="-11" y="14" as="offset"/>
                    </mxGeometry>
                </mxCell>
                <mxCell id="tHLVrhVuMcMVLVZoWZUN-1" value="1" style="edgeLabel;html=1;align=center;verticalAlign=middle;resizable=0;points=[];" parent="mXA5R7LTz2ie4Cur8OkS-43" vertex="1" connectable="0">
                    <mxGeometry x="-0.3452" y="2" relative="1" as="geometry">
                        <mxPoint x="158" y="12" as="offset"/>
                    </mxGeometry>
                </mxCell>
                <mxCell id="tHLVrhVuMcMVLVZoWZUN-3" value="" style="endArrow=diamondThin;endFill=0;endSize=24;html=1;entryX=1;entryY=0;entryDx=0;entryDy=0;exitX=0.444;exitY=0;exitDx=0;exitDy=0;exitPerimeter=0;" parent="1" source="mXA5R7LTz2ie4Cur8OkS-13" target="mXA5R7LTz2ie4Cur8OkS-17" edge="1">
                    <mxGeometry width="160" relative="1" as="geometry">
                        <mxPoint x="720" y="230" as="sourcePoint"/>
                        <mxPoint x="560" y="230" as="targetPoint"/>
                    </mxGeometry>
                </mxCell>
                <mxCell id="tHLVrhVuMcMVLVZoWZUN-4" value="0..1" style="edgeLabel;html=1;align=center;verticalAlign=middle;resizable=0;points=[];" parent="tHLVrhVuMcMVLVZoWZUN-3" vertex="1" connectable="0">
                    <mxGeometry x="-0.321" y="3" relative="1" as="geometry">
                        <mxPoint x="20" y="47" as="offset"/>
                    </mxGeometry>
                </mxCell>
                <mxCell id="tHLVrhVuMcMVLVZoWZUN-5" value="0..*" style="edgeLabel;html=1;align=center;verticalAlign=middle;resizable=0;points=[];" parent="tHLVrhVuMcMVLVZoWZUN-3" vertex="1" connectable="0">
                    <mxGeometry x="0.352" y="-1" relative="1" as="geometry">
                        <mxPoint x="-26" y="-54" as="offset"/>
                    </mxGeometry>
                </mxCell>
                <mxCell id="tHLVrhVuMcMVLVZoWZUN-6" value="" style="endArrow=diamondThin;endFill=0;endSize=24;html=1;edgeStyle=orthogonalEdgeStyle;entryX=0.086;entryY=0.015;entryDx=0;entryDy=0;entryPerimeter=0;exitX=0.75;exitY=0;exitDx=0;exitDy=0;" parent="1" source="mXA5R7LTz2ie4Cur8OkS-5" target="mXA5R7LTz2ie4Cur8OkS-17" edge="1">
                    <mxGeometry width="160" relative="1" as="geometry">
                        <mxPoint x="240" y="20" as="sourcePoint"/>
                        <mxPoint x="414" y="60" as="targetPoint"/>
                        <Array as="points">
                            <mxPoint x="233" y="20"/>
                            <mxPoint x="392" y="20"/>
                        </Array>
                    </mxGeometry>
                </mxCell>
                <mxCell id="tHLVrhVuMcMVLVZoWZUN-7" value="0..*" style="edgeLabel;html=1;align=center;verticalAlign=middle;resizable=0;points=[];" parent="tHLVrhVuMcMVLVZoWZUN-6" vertex="1" connectable="0">
                    <mxGeometry x="-0.2574" y="3" relative="1" as="geometry">
                        <mxPoint x="-47" y="33" as="offset"/>
                    </mxGeometry>
                </mxCell>
                <mxCell id="tHLVrhVuMcMVLVZoWZUN-8" value="0..*" style="edgeLabel;html=1;align=center;verticalAlign=middle;resizable=0;points=[];" parent="1" vertex="1" connectable="0">
                    <mxGeometry x="260.5" y="60" as="geometry">
                        <mxPoint x="110" y="29" as="offset"/>
                    </mxGeometry>
                </mxCell>
            </root>
        </mxGraphModel>
    </diagram>
</mxfile>